<mxfile host="65bd71144e">
    <diagram id="MRGWwy8YX_TXBKJebrJj" name="Page-1">
        <mxGraphModel dx="1454" dy="681" grid="1" gridSize="10" guides="1" tooltips="1" connect="1" arrows="1" fold="1" page="1" pageScale="1" pageWidth="850" pageHeight="1100" math="0" shadow="0">
            <root>
                <mxCell id="0"/>
                <mxCell id="1" parent="0"/>
                <mxCell id="2" value="Agents&lt;div&gt;Takes action using reason&lt;/div&gt;" style="rounded=1;whiteSpace=wrap;html=1;strokeWidth=4;" vertex="1" parent="1">
                    <mxGeometry x="360" y="320" width="190" height="60" as="geometry"/>
                </mxCell>
                <mxCell id="3" value="Reason" style="rounded=1;whiteSpace=wrap;html=1;" vertex="1" parent="1">
                    <mxGeometry x="240" y="430" width="120" height="60" as="geometry"/>
                </mxCell>
                <mxCell id="4" value="Routing" style="rounded=1;whiteSpace=wrap;html=1;" vertex="1" parent="1">
                    <mxGeometry x="410" y="430" width="120" height="60" as="geometry"/>
                </mxCell>
                <mxCell id="5" value="Actions" style="rounded=1;whiteSpace=wrap;html=1;" vertex="1" parent="1">
                    <mxGeometry x="580" y="430" width="120" height="60" as="geometry"/>
                </mxCell>
            </root>
        </mxGraphModel>
    </diagram>
</mxfile>